<mxfile host="app.diagrams.net" modified="2023-11-03T15:53:54.079Z" agent="Mozilla/5.0 (X11; Linux x86_64; rv:109.0) Gecko/20100101 Firefox/119.0" etag="kXLADi8kH9cewZFNKlxA" version="22.0.8" type="device">
  <diagram name="Page-1" id="hjveABqLxXkfFrtFS4L-">
    <mxGraphModel dx="584" dy="778" grid="1" gridSize="10" guides="1" tooltips="1" connect="1" arrows="1" fold="1" page="1" pageScale="1" pageWidth="850" pageHeight="1100" math="0" shadow="0">
      <root>
        <mxCell id="0" />
        <mxCell id="1" parent="0" />
        <mxCell id="Al1wd1-Bk4d_VJ8BotYO-1" value="&lt;div&gt;myStudent&lt;/div&gt;" style="shape=umlActor;verticalLabelPosition=bottom;verticalAlign=top;html=1;outlineConnect=0;" vertex="1" parent="1">
          <mxGeometry x="1299" y="391" width="30" height="60" as="geometry" />
        </mxCell>
        <mxCell id="Al1wd1-Bk4d_VJ8BotYO-2" value="&lt;div&gt;myStudent&lt;/div&gt;" style="shape=umlActor;verticalLabelPosition=bottom;verticalAlign=top;html=1;outlineConnect=0;" vertex="1" parent="1">
          <mxGeometry x="1377" y="261" width="30" height="60" as="geometry" />
        </mxCell>
        <mxCell id="Al1wd1-Bk4d_VJ8BotYO-3" value="&lt;div&gt;myStudent&lt;/div&gt;" style="shape=umlActor;verticalLabelPosition=bottom;verticalAlign=top;html=1;outlineConnect=0;" vertex="1" parent="1">
          <mxGeometry x="1450" y="391" width="30" height="60" as="geometry" />
        </mxCell>
        <mxCell id="Al1wd1-Bk4d_VJ8BotYO-4" value="" style="endArrow=none;html=1;rounded=0;" edge="1" parent="1">
          <mxGeometry width="50" height="50" relative="1" as="geometry">
            <mxPoint x="1327" y="381" as="sourcePoint" />
            <mxPoint x="1357" y="341" as="targetPoint" />
          </mxGeometry>
        </mxCell>
        <mxCell id="Al1wd1-Bk4d_VJ8BotYO-5" value="" style="endArrow=none;html=1;rounded=0;" edge="1" parent="1">
          <mxGeometry width="50" height="50" relative="1" as="geometry">
            <mxPoint x="1457" y="381" as="sourcePoint" />
            <mxPoint x="1427" y="341" as="targetPoint" />
          </mxGeometry>
        </mxCell>
        <mxCell id="Al1wd1-Bk4d_VJ8BotYO-6" value="myStudent" style="swimlane;fontStyle=2;align=center;verticalAlign=top;childLayout=stackLayout;horizontal=1;startSize=26;horizontalStack=0;resizeParent=1;resizeLast=0;collapsible=1;marginBottom=0;rounded=0;shadow=0;strokeWidth=1;" vertex="1" parent="1">
          <mxGeometry x="1079" y="155" width="190" height="120" as="geometry">
            <mxRectangle x="230" y="140" width="160" height="26" as="alternateBounds" />
          </mxGeometry>
        </mxCell>
        <mxCell id="Al1wd1-Bk4d_VJ8BotYO-7" value="- string: studentCode" style="text;align=left;verticalAlign=top;spacingLeft=4;spacingRight=4;overflow=hidden;rotatable=0;points=[[0,0.5],[1,0.5]];portConstraint=eastwest;" vertex="1" parent="Al1wd1-Bk4d_VJ8BotYO-6">
          <mxGeometry y="26" width="190" height="26" as="geometry" />
        </mxCell>
        <mxCell id="Al1wd1-Bk4d_VJ8BotYO-8" value="- string: studentName" style="text;align=left;verticalAlign=top;spacingLeft=4;spacingRight=4;overflow=hidden;rotatable=0;points=[[0,0.5],[1,0.5]];portConstraint=eastwest;rounded=0;shadow=0;html=0;" vertex="1" parent="Al1wd1-Bk4d_VJ8BotYO-6">
          <mxGeometry y="52" width="190" height="26" as="geometry" />
        </mxCell>
        <mxCell id="Al1wd1-Bk4d_VJ8BotYO-9" value="- vector&lt;myUc&gt;: classes" style="text;align=left;verticalAlign=top;spacingLeft=4;spacingRight=4;overflow=hidden;rotatable=0;points=[[0,0.5],[1,0.5]];portConstraint=eastwest;rounded=0;shadow=0;html=0;" vertex="1" parent="Al1wd1-Bk4d_VJ8BotYO-6">
          <mxGeometry y="78" width="190" height="26" as="geometry" />
        </mxCell>
        <mxCell id="Al1wd1-Bk4d_VJ8BotYO-10" value="myUc" style="swimlane;fontStyle=2;align=center;verticalAlign=top;childLayout=stackLayout;horizontal=1;startSize=26;horizontalStack=0;resizeParent=1;resizeLast=0;collapsible=1;marginBottom=0;rounded=0;shadow=0;strokeWidth=1;" vertex="1" parent="1">
          <mxGeometry x="989" y="300" width="220" height="120" as="geometry">
            <mxRectangle x="230" y="140" width="160" height="26" as="alternateBounds" />
          </mxGeometry>
        </mxCell>
        <mxCell id="Al1wd1-Bk4d_VJ8BotYO-11" value="- string: classCode" style="text;align=left;verticalAlign=top;spacingLeft=4;spacingRight=4;overflow=hidden;rotatable=0;points=[[0,0.5],[1,0.5]];portConstraint=eastwest;" vertex="1" parent="Al1wd1-Bk4d_VJ8BotYO-10">
          <mxGeometry y="26" width="220" height="26" as="geometry" />
        </mxCell>
        <mxCell id="Al1wd1-Bk4d_VJ8BotYO-12" value="- string: ucCode" style="text;align=left;verticalAlign=top;spacingLeft=4;spacingRight=4;overflow=hidden;rotatable=0;points=[[0,0.5],[1,0.5]];portConstraint=eastwest;rounded=0;shadow=0;html=0;" vertex="1" parent="Al1wd1-Bk4d_VJ8BotYO-10">
          <mxGeometry y="52" width="220" height="26" as="geometry" />
        </mxCell>
        <mxCell id="Al1wd1-Bk4d_VJ8BotYO-13" value="- vector&lt;classInfo&gt; classInfoVec" style="text;align=left;verticalAlign=top;spacingLeft=4;spacingRight=4;overflow=hidden;rotatable=0;points=[[0,0.5],[1,0.5]];portConstraint=eastwest;rounded=0;shadow=0;html=0;" vertex="1" parent="Al1wd1-Bk4d_VJ8BotYO-10">
          <mxGeometry y="78" width="220" height="26" as="geometry" />
        </mxCell>
        <mxCell id="Al1wd1-Bk4d_VJ8BotYO-14" style="edgeStyle=orthogonalEdgeStyle;rounded=0;orthogonalLoop=1;jettySize=auto;html=1;exitX=0;exitY=0.5;exitDx=0;exitDy=0;entryX=0.25;entryY=0;entryDx=0;entryDy=0;" edge="1" parent="1" source="Al1wd1-Bk4d_VJ8BotYO-9" target="Al1wd1-Bk4d_VJ8BotYO-10">
          <mxGeometry relative="1" as="geometry" />
        </mxCell>
        <mxCell id="Al1wd1-Bk4d_VJ8BotYO-15" value="classInfo (struct)" style="swimlane;fontStyle=2;align=center;verticalAlign=top;childLayout=stackLayout;horizontal=1;startSize=26;horizontalStack=0;resizeParent=1;resizeLast=0;collapsible=1;marginBottom=0;rounded=0;shadow=0;strokeWidth=1;" vertex="1" parent="1">
          <mxGeometry x="949" y="451" width="270" height="170" as="geometry">
            <mxRectangle x="230" y="140" width="160" height="26" as="alternateBounds" />
          </mxGeometry>
        </mxCell>
        <mxCell id="Al1wd1-Bk4d_VJ8BotYO-16" value="+ string: code" style="text;align=left;verticalAlign=top;spacingLeft=4;spacingRight=4;overflow=hidden;rotatable=0;points=[[0,0.5],[1,0.5]];portConstraint=eastwest;" vertex="1" parent="Al1wd1-Bk4d_VJ8BotYO-15">
          <mxGeometry y="26" width="270" height="26" as="geometry" />
        </mxCell>
        <mxCell id="Al1wd1-Bk4d_VJ8BotYO-17" value="+ string: type" style="text;align=left;verticalAlign=top;spacingLeft=4;spacingRight=4;overflow=hidden;rotatable=0;points=[[0,0.5],[1,0.5]];portConstraint=eastwest;rounded=0;shadow=0;html=0;" vertex="1" parent="Al1wd1-Bk4d_VJ8BotYO-15">
          <mxGeometry y="52" width="270" height="26" as="geometry" />
        </mxCell>
        <mxCell id="Al1wd1-Bk4d_VJ8BotYO-18" value="+ int: dayInt" style="text;align=left;verticalAlign=top;spacingLeft=4;spacingRight=4;overflow=hidden;rotatable=0;points=[[0,0.5],[1,0.5]];portConstraint=eastwest;rounded=0;shadow=0;html=0;" vertex="1" parent="Al1wd1-Bk4d_VJ8BotYO-15">
          <mxGeometry y="78" width="270" height="26" as="geometry" />
        </mxCell>
        <mxCell id="Al1wd1-Bk4d_VJ8BotYO-19" value="+ double: startTime" style="text;align=left;verticalAlign=top;spacingLeft=4;spacingRight=4;overflow=hidden;rotatable=0;points=[[0,0.5],[1,0.5]];portConstraint=eastwest;rounded=0;shadow=0;html=0;" vertex="1" parent="Al1wd1-Bk4d_VJ8BotYO-15">
          <mxGeometry y="104" width="270" height="26" as="geometry" />
        </mxCell>
        <mxCell id="Al1wd1-Bk4d_VJ8BotYO-20" value="+ double: duration" style="text;align=left;verticalAlign=top;spacingLeft=4;spacingRight=4;overflow=hidden;rotatable=0;points=[[0,0.5],[1,0.5]];portConstraint=eastwest;rounded=0;shadow=0;html=0;" vertex="1" parent="Al1wd1-Bk4d_VJ8BotYO-15">
          <mxGeometry y="130" width="270" height="26" as="geometry" />
        </mxCell>
        <mxCell id="Al1wd1-Bk4d_VJ8BotYO-21" style="edgeStyle=orthogonalEdgeStyle;rounded=0;orthogonalLoop=1;jettySize=auto;html=1;exitX=0;exitY=0.5;exitDx=0;exitDy=0;entryX=0.067;entryY=0.012;entryDx=0;entryDy=0;entryPerimeter=0;" edge="1" parent="1" source="Al1wd1-Bk4d_VJ8BotYO-13" target="Al1wd1-Bk4d_VJ8BotYO-15">
          <mxGeometry relative="1" as="geometry" />
        </mxCell>
        <mxCell id="Al1wd1-Bk4d_VJ8BotYO-22" value="&lt;font style=&quot;font-size: 14px;&quot;&gt;The student tree is created from a map, with the key being the studentCode and the node being an object of myStudent. Each myStudent object has a vector of the myUc class. The myUc class has attributes of classCode, ucCode and a classInfo vector. classInfo is a struct that contains detailed data about class schedules.&lt;/font&gt;" style="text;html=1;strokeColor=none;fillColor=none;spacing=5;spacingTop=-20;whiteSpace=wrap;overflow=hidden;rounded=0;" vertex="1" parent="1">
          <mxGeometry x="1299" y="110" width="302" height="129" as="geometry" />
        </mxCell>
        <mxCell id="Al1wd1-Bk4d_VJ8BotYO-23" value="&lt;b&gt;&lt;font style=&quot;font-size: 18px;&quot;&gt;Student Tree (students)&lt;/font&gt;&lt;/b&gt;" style="text;html=1;strokeColor=none;fillColor=none;align=center;verticalAlign=middle;whiteSpace=wrap;rounded=0;" vertex="1" parent="1">
          <mxGeometry x="1209" y="50" width="210" height="30" as="geometry" />
        </mxCell>
      </root>
    </mxGraphModel>
  </diagram>
</mxfile>
